<svg width="70" height="84" viewBox="0 0 70 84" fill="none" xmlns="http://www.w3.org/2000/svg">
<path d="M58.9551 25.0449C65.4095 31.4993 68.9629 40.078 68.9629 49.2061C68.9627 68.0462 53.6341 83.3749 34.7939 83.375C15.9537 83.375 0.625 68.0463 0.625 49.2061C0.625025 40.078 4.17839 31.4993 10.6328 25.0449L34.793 0.883789L58.9551 25.0449ZM14.3887 28.8018C8.93953 34.2511 5.93752 41.4994 5.9375 49.2061C5.9375 65.1182 18.8818 78.0625 34.7939 78.0625C50.7059 78.0624 63.6504 65.1181 63.6504 49.2061C63.6504 41.4995 60.6475 34.2513 55.1982 28.8018L35.2354 8.83887L34.7939 8.39648L14.3887 28.8018Z" fill="#779E45" stroke="#779E45" stroke-width="1.25"/>
</svg>
